<?xml version="1.0"?>
<svg xmlns:rdf="http://www.w3.org/1999/02/22-rdf-syntax-ns#" xmlns="http://www.w3.org/2000/svg" xmlns:cc="http://creativecommons.org/ns#" xmlns:xlink="http://www.w3.org/1999/xlink" xmlns:dc="http://purl.org/dc/elements/1.1/" xmlns:svg="http://www.w3.org/2000/svg" id="svg2" viewBox="0 0 610 610" version="1.1">
  <g id="layer4" transform="translate(5 -397.36)">
    <g id="g4526">
      <rect id="rect5840" stroke-linejoin="round" ry="1.5381" height="600" width="600" stroke="#4a0" y="402.36" x="0" stroke-width="10" fill="none"/>
      <g id="g3780" fill="#4a0" transform="matrix(.94127 0 0 1 -37.042 350.12)">
        <path id="path3001" fill-rule="evenodd" transform="translate(42.879 246.44)" d="m277.62 5.6875c-83.71 0.8734-168.01 40.09-181.74 113.69-30.486 11.988-51.594 41.655-51.594 76.344 2.3104 20.332 16.44 11.105 25.938 13.469 0.068-30.564 24.888-55.312 55.469-55.312 30.622 0 55.438 24.815 55.438 55.438 0 5.8605-0.93993 11.51-2.625 16.812 0.48615-1.0582 0.9851-2.1264 1.4062-3.2188 77.19 0.44729 131.49 0.46073 267.56 0.6875-1.0891-4.3364-1.6875-8.857-1.6875-13.531 0-30.622 24.846-55.438 55.469-55.438 30.622 0 55.438 24.815 55.438 55.438 0 3.1679-0.27097 6.2585-0.78125 9.2812 1.1779-4.0116 1.9344-8.2022 2.1875-12.531 0.0809 2.745 0.0592 5.5771-0.0937 8.5l3.93 0.68c3.5922-9.3591 14.892-32.437 13.688-50.812-1.2047-18.375-13.713-33.957-30.062-43.5-25.88-13.13-54.15-17.3-82.57-21.38-8.87-1.84-11.57-2.301-14.06-4.654-24.03-61.658-97.45-90.739-171.32-89.968z"/>
        <path id="path3762" stroke="#fff" stroke-width="2.1" transform="matrix(2.381 0 0 2.381 429.95 528.57)" d="m-86.497-30.581c0 12.861-10.426 23.288-23.288 23.288-12.861 0-23.288-10.426-23.288-23.288 0-12.861 10.426-23.288 23.288-23.288 12.861 0 23.288 10.426 23.288 23.288z"/>
        <path id="path3766" stroke="#fff" stroke-width="2.1" transform="matrix(2.381 0 0 2.381 805.51 529.3)" d="m-86.497-30.581c0 12.861-10.426 23.288-23.288 23.288-12.861 0-23.288-10.426-23.288-23.288 0-12.861 10.426-23.288 23.288-23.288 12.861 0 23.288 10.426 23.288 23.288z"/>
      </g>
    </g>
  </g>
  <metadata>
    <rdf:RDF>
      <cc:Work>
        <dc:format>image/svg+xml</dc:format>
        <dc:type rdf:resource="http://purl.org/dc/dcmitype/StillImage"/>
        <cc:license rdf:resource="http://creativecommons.org/licenses/publicdomain/"/>
        <dc:publisher>
          <cc:Agent rdf:about="http://openclipart.org/">
            <dc:title>Openclipart</dc:title>
          </cc:Agent>
        </dc:publisher>
        <dc:title>eco green car icon</dc:title>
        <dc:date>2012-06-03T04:30:35</dc:date>
        <dc:description>car, clip art, clipart, ecology, green, icon, </dc:description>
        <dc:source>http://openclipart.org/detail/170364/eco-green-car-icon-by-cybergedeon-170364</dc:source>
        <dc:creator>
          <cc:Agent>
            <dc:title>dominiquechappard</dc:title>
          </cc:Agent>
        </dc:creator>
        <dc:subject>
          <rdf:Bag>
            <rdf:li>car</rdf:li>
            <rdf:li>clip art</rdf:li>
            <rdf:li>clipart</rdf:li>
            <rdf:li>ecology</rdf:li>
            <rdf:li>green</rdf:li>
            <rdf:li>icon</rdf:li>
          </rdf:Bag>
        </dc:subject>
      </cc:Work>
      <cc:License rdf:about="http://creativecommons.org/licenses/publicdomain/">
        <cc:permits rdf:resource="http://creativecommons.org/ns#Reproduction"/>
        <cc:permits rdf:resource="http://creativecommons.org/ns#Distribution"/>
        <cc:permits rdf:resource="http://creativecommons.org/ns#DerivativeWorks"/>
      </cc:License>
    </rdf:RDF>
  </metadata>
</svg>
